<svg width="85" height="30" viewBox="0 0 85 30" fill="none" xmlns="http://www.w3.org/2000/svg">
<path d="M1.68 23V21.104C3.2 20.048 4.472 19.104 5.496 18.272C6.536 17.424 7.368 16.656 7.992 15.968C8.616 15.264 9.064 14.592 9.336 13.952C9.624 13.312 9.768 12.664 9.768 12.008C9.768 11.176 9.496 10.496 8.952 9.968C8.424 9.424 7.696 9.152 6.768 9.152C5.776 9.152 4.984 9.488 4.392 10.16C3.816 10.816 3.488 11.72 3.408 12.872L1.176 11.84C1.32 10.336 1.896 9.144 2.904 8.264C3.912 7.368 5.248 6.92 6.912 6.92C8.08 6.92 9.072 7.144 9.888 7.592C10.704 8.04 11.328 8.64 11.76 9.392C12.192 10.144 12.408 10.984 12.408 11.912C12.408 12.92 12.16 13.896 11.664 14.84C11.168 15.768 10.384 16.72 9.312 17.696C8.24 18.672 6.832 19.72 5.088 20.84V20.888C5.28 20.872 5.544 20.856 5.88 20.84C6.216 20.824 6.552 20.816 6.888 20.816C7.224 20.8 7.496 20.792 7.704 20.792H12.696V23H1.68ZM21.6219 23.24C19.7179 23.24 18.2219 22.552 17.1339 21.176C16.0619 19.784 15.5259 17.752 15.5259 15.08C15.5259 12.408 16.0619 10.384 17.1339 9.008C18.2219 7.616 19.7179 6.92 21.6219 6.92C23.5259 6.92 25.0219 7.616 26.1099 9.008C27.1979 10.384 27.7419 12.408 27.7419 15.08C27.7419 17.752 27.1979 19.784 26.1099 21.176C25.0219 22.552 23.5259 23.24 21.6219 23.24ZM21.6219 21.056C23.9579 21.056 25.1259 19.064 25.1259 15.08C25.1259 11.096 23.9579 9.104 21.6219 9.104C19.3019 9.104 18.1419 11.096 18.1419 15.08C18.1419 19.064 19.3019 21.056 21.6219 21.056ZM30.8363 23V21.104C32.3563 20.048 33.6283 19.104 34.6523 18.272C35.6923 17.424 36.5243 16.656 37.1483 15.968C37.7723 15.264 38.2203 14.592 38.4923 13.952C38.7803 13.312 38.9243 12.664 38.9243 12.008C38.9243 11.176 38.6523 10.496 38.1083 9.968C37.5803 9.424 36.8523 9.152 35.9243 9.152C34.9323 9.152 34.1403 9.488 33.5483 10.16C32.9723 10.816 32.6443 11.72 32.5643 12.872L30.3323 11.84C30.4763 10.336 31.0523 9.144 32.0603 8.264C33.0683 7.368 34.4043 6.92 36.0683 6.92C37.2363 6.92 38.2283 7.144 39.0443 7.592C39.8603 8.04 40.4843 8.64 40.9163 9.392C41.3483 10.144 41.5643 10.984 41.5643 11.912C41.5643 12.92 41.3163 13.896 40.8203 14.84C40.3243 15.768 39.5403 16.72 38.4683 17.696C37.3963 18.672 35.9883 19.72 34.2443 20.84V20.888C34.4363 20.872 34.7003 20.856 35.0363 20.84C35.3723 20.824 35.7083 20.816 36.0443 20.816C36.3803 20.8 36.6523 20.792 36.8603 20.792H41.8523V23H30.8363ZM48.1142 23V12.128C48.1142 11.824 48.1142 11.496 48.1142 11.144C48.1302 10.792 48.1462 10.424 48.1622 10.04C47.6182 10.568 46.9942 11.024 46.2902 11.408C45.5862 11.776 44.8742 12.04 44.1542 12.2L43.6742 9.968C43.9942 9.92 44.3782 9.808 44.8262 9.632C45.2902 9.456 45.7622 9.232 46.2422 8.96C46.7222 8.688 47.1622 8.4 47.5622 8.096C47.9622 7.776 48.2742 7.464 48.4982 7.16H50.6582V23H48.1142Z" fill="black"/>
<path d="M69.12 12.2901L73 16.1701L76.88 12.2901C77.27 11.9001 77.9 11.9001 78.29 12.2901C78.68 12.6801 78.68 13.3101 78.29 13.7001L73.7 18.2901C73.31 18.6801 72.68 18.6801 72.29 18.2901L67.7 13.7001C67.31 13.3101 67.31 12.6801 67.7 12.2901C68.09 11.9101 68.73 11.9001 69.12 12.2901Z" fill="#161616"/>
</svg>
