<svg width="36" height="36" viewBox="0 0 36 36" fill="none" xmlns="http://www.w3.org/2000/svg">
<g clip-path="url(#clip0_110_10)">
<path d="M23.25 21H22.065L21.645 20.595C23.445 18.495 24.375 15.63 23.865 12.585C23.16 8.41496 19.68 5.08496 15.48 4.57496C9.13496 3.79496 3.79496 9.13496 4.57496 15.48C5.08496 19.68 8.41496 23.16 12.585 23.865C15.63 24.375 18.495 23.445 20.595 21.645L21 22.065V23.25L27.375 29.625C27.99 30.24 28.995 30.24 29.61 29.625C30.225 29.01 30.225 28.005 29.61 27.39L23.25 21ZM14.25 21C10.515 21 7.49996 17.985 7.49996 14.25C7.49996 10.515 10.515 7.49996 14.25 7.49996C17.985 7.49996 21 10.515 21 14.25C21 17.985 17.985 21 14.25 21Z" fill="#161616"/>
</g>
<defs>
<clipPath id="clip0_110_10">
<rect width="36" height="36" fill="white"/>
</clipPath>
</defs>
</svg>
